<svg xmlns="http://www.w3.org/2000/svg" xmlns:xlink="http://www.w3.org/1999/xlink" width="100" zoomAndPan="magnify" viewBox="0 0 75 30.000001" height="40" preserveAspectRatio="xMidYMid meet" version="1.0"><defs><g/><clipPath id="55ce3fb3c9"><path d="M 1.210938 0 L 73.789062 0 L 73.789062 29.03125 L 1.210938 29.03125 Z M 1.210938 0 " clip-rule="nonzero"/></clipPath></defs><g clip-path="url(#55ce3fb3c9)"><path fill="#ffffff" d="M 1.210938 0 L 73.789062 0 L 73.789062 29.03125 L 1.210938 29.03125 Z M 1.210938 0 " fill-opacity="1" fill-rule="nonzero"/><path fill="#ffffff" d="M 1.210938 0 L 73.789062 0 L 73.789062 29.03125 L 1.210938 29.03125 Z M 1.210938 0 " fill-opacity="1" fill-rule="nonzero"/></g><g fill="#000000" fill-opacity="1"><g transform="translate(16.790095, 10.102443)"><g><path d="M 0.53125 0 L 2.660156 0 L 2.660156 -3.199219 L 7.542969 -3.199219 L 7.542969 0 L 9.671875 0 L 9.671875 -7.542969 L 7.542969 -7.542969 L 7.542969 -4.691406 L 2.660156 -4.691406 L 2.660156 -7.542969 L 0.53125 -7.542969 Z M 0.53125 0 "/></g></g></g><g fill="#000000" fill-opacity="1"><g transform="translate(26.991077, 10.102443)"><g><path d="M 4.492188 0.191406 C 7.054688 0.191406 8.726562 -0.964844 8.726562 -2.710938 C 8.726562 -4.460938 7.054688 -5.613281 4.492188 -5.613281 C 1.9375 -5.613281 0.265625 -4.460938 0.265625 -2.710938 C 0.265625 -0.964844 1.9375 0.191406 4.492188 0.191406 Z M 4.492188 -1.027344 C 3.105469 -1.027344 2.203125 -1.695312 2.203125 -2.710938 C 2.203125 -3.730469 3.105469 -4.394531 4.492188 -4.394531 C 5.890625 -4.394531 6.789062 -3.730469 6.789062 -2.710938 C 6.789062 -1.695312 5.890625 -1.027344 4.492188 -1.027344 Z M 4.492188 -1.027344 "/></g></g></g><g fill="#000000" fill-opacity="1"><g transform="translate(35.984464, 10.102443)"><g><path d="M 0.421875 0 L 2.363281 0 L 2.363281 -2.488281 C 2.363281 -3.632812 3.0625 -4.320312 4.246094 -4.320312 C 5.199219 -4.320312 5.773438 -3.792969 5.773438 -2.914062 L 5.773438 0 L 7.710938 0 L 7.710938 -2.488281 C 7.710938 -3.621094 8.410156 -4.320312 9.597656 -4.320312 C 10.550781 -4.320312 11.121094 -3.792969 11.121094 -2.914062 L 11.121094 0 L 13.0625 0 L 13.0625 -3.21875 C 13.0625 -4.640625 12.085938 -5.613281 10.433594 -5.613281 C 9.207031 -5.613281 8.082031 -5.0625 7.574219 -4.046875 L 7.5625 -4.046875 C 7.234375 -5.011719 6.375 -5.613281 5.085938 -5.613281 C 3.835938 -5.613281 2.796875 -5.03125 2.308594 -4.097656 L 2.296875 -4.097656 L 2.054688 -5.421875 L 0.421875 -5.421875 Z M 0.421875 0 "/></g></g></g><g fill="#000000" fill-opacity="1"><g transform="translate(49.384508, 10.102443)"><g><path d="M 4.765625 0.191406 C 6.261719 0.191406 7.699219 -0.210938 8.441406 -0.785156 L 7.828125 -1.757812 C 7.257812 -1.335938 6.089844 -1.015625 4.914062 -1.015625 C 3.664062 -1.015625 2.5625 -1.441406 2.332031 -2.222656 L 8.316406 -2.222656 C 8.359375 -2.382812 8.367188 -2.59375 8.367188 -2.722656 C 8.367188 -4.449219 6.757812 -5.613281 4.386719 -5.613281 C 1.960938 -5.613281 0.265625 -4.417969 0.265625 -2.734375 C 0.265625 -0.984375 2.109375 0.191406 4.765625 0.191406 Z M 2.289062 -3.167969 C 2.382812 -3.917969 3.253906 -4.460938 4.355469 -4.460938 C 5.464844 -4.460938 6.34375 -3.949219 6.410156 -3.167969 Z M 2.289062 -3.167969 "/></g></g></g><g fill="#000000" fill-opacity="1"><g transform="translate(2.735258, 24.226243)"><g><path d="M 0.53125 0 L 2.660156 0 L 2.660156 -2.902344 L 7.5 -2.902344 L 7.5 -4.207031 L 2.660156 -4.207031 L 2.660156 -5.996094 L 8.125 -5.996094 L 8.125 -7.542969 L 0.53125 -7.542969 Z M 0.53125 0 "/></g></g></g><g fill="#000000" fill-opacity="1"><g transform="translate(11.050698, 24.226243)"><g><path d="M 3.242188 0.191406 C 4.648438 0.191406 5.730469 -0.402344 6.230469 -1.34375 L 6.238281 -1.34375 L 6.441406 0 L 8.125 0 L 8.125 -5.421875 L 6.195312 -5.421875 L 6.195312 -2.964844 C 6.195312 -1.726562 5.390625 -0.996094 4.058594 -0.996094 C 2.933594 -0.996094 2.289062 -1.589844 2.289062 -2.59375 L 2.289062 -5.421875 L 0.347656 -5.421875 L 0.347656 -2.394531 C 0.339844 -0.792969 1.460938 0.191406 3.242188 0.191406 Z M 3.242188 0.191406 "/></g></g></g><g fill="#000000" fill-opacity="1"><g transform="translate(19.599187, 24.226243)"><g><path d="M 4.574219 -5.613281 C 3.582031 -5.613281 2.722656 -5.074219 2.320312 -4.195312 L 2.308594 -4.195312 L 2.054688 -5.421875 L 0.421875 -5.421875 L 0.421875 0 L 2.363281 0 L 2.363281 -2.394531 C 2.363281 -3.601562 2.914062 -4.375 3.8125 -4.375 C 4.4375 -4.375 4.882812 -3.867188 4.9375 -3.019531 L 6.695312 -3.390625 C 6.597656 -4.765625 5.773438 -5.613281 4.574219 -5.613281 Z M 4.574219 -5.613281 "/></g></g></g><g fill="#000000" fill-opacity="1"><g transform="translate(26.431621, 24.226243)"><g><path d="M 5.308594 -5.613281 C 3.898438 -5.613281 2.816406 -5.019531 2.320312 -4.078125 L 2.308594 -4.078125 L 2.109375 -5.421875 L 0.421875 -5.421875 L 0.421875 0 L 2.351562 0 L 2.351562 -2.457031 C 2.351562 -3.695312 3.15625 -4.429688 4.492188 -4.429688 C 5.613281 -4.429688 6.261719 -3.835938 6.261719 -2.828125 L 6.261719 0 L 8.199219 0 L 8.199219 -3.03125 C 8.210938 -4.628906 7.085938 -5.613281 5.308594 -5.613281 Z M 5.308594 -5.613281 "/></g></g></g><g fill="#000000" fill-opacity="1"><g transform="translate(34.980111, 24.226243)"><g><path d="M 1.453125 -6.164062 C 2.109375 -6.164062 2.574219 -6.578125 2.574219 -7.171875 C 2.574219 -7.765625 2.109375 -8.175781 1.453125 -8.175781 C 0.792969 -8.175781 0.339844 -7.765625 0.339844 -7.171875 C 0.339844 -6.578125 0.792969 -6.164062 1.453125 -6.164062 Z M 0.488281 0 L 2.425781 0 L 2.425781 -5.421875 L 0.488281 -5.421875 Z M 0.488281 0 "/></g></g></g><g fill="#000000" fill-opacity="1"><g transform="translate(37.893161, 24.226243)"><g><path d="M 4.355469 0.191406 C 5.613281 0.191406 6.546875 -0.234375 7.234375 -1.039062 L 6.664062 -2.097656 C 6.1875 -1.503906 5.605469 -1.164062 4.851562 -1.164062 C 4.035156 -1.164062 3.644531 -1.566406 3.65625 -2.296875 L 3.65625 -4.195312 L 7.042969 -4.195312 L 7.042969 -5.421875 L 3.65625 -5.421875 L 3.65625 -7.320312 L 1.707031 -6.96875 L 1.707031 -5.421875 L 0.0546875 -5.421875 L 0.0546875 -4.195312 L 1.714844 -4.195312 L 1.714844 -1.90625 C 1.726562 -0.59375 2.703125 0.191406 4.355469 0.191406 Z M 4.355469 0.191406 "/></g></g></g><g fill="#000000" fill-opacity="1"><g transform="translate(45.265843, 24.226243)"><g><path d="M 3.242188 0.191406 C 4.648438 0.191406 5.730469 -0.402344 6.230469 -1.34375 L 6.238281 -1.34375 L 6.441406 0 L 8.125 0 L 8.125 -5.421875 L 6.195312 -5.421875 L 6.195312 -2.964844 C 6.195312 -1.726562 5.390625 -0.996094 4.058594 -0.996094 C 2.933594 -0.996094 2.289062 -1.589844 2.289062 -2.59375 L 2.289062 -5.421875 L 0.347656 -5.421875 L 0.347656 -2.394531 C 0.339844 -0.792969 1.460938 0.191406 3.242188 0.191406 Z M 3.242188 0.191406 "/></g></g></g><g fill="#000000" fill-opacity="1"><g transform="translate(53.814333, 24.226243)"><g><path d="M 4.574219 -5.613281 C 3.582031 -5.613281 2.722656 -5.074219 2.320312 -4.195312 L 2.308594 -4.195312 L 2.054688 -5.421875 L 0.421875 -5.421875 L 0.421875 0 L 2.363281 0 L 2.363281 -2.394531 C 2.363281 -3.601562 2.914062 -4.375 3.8125 -4.375 C 4.4375 -4.375 4.882812 -3.867188 4.9375 -3.019531 L 6.695312 -3.390625 C 6.597656 -4.765625 5.773438 -5.613281 4.574219 -5.613281 Z M 4.574219 -5.613281 "/></g></g></g><g fill="#000000" fill-opacity="1"><g transform="translate(60.646767, 24.226243)"><g><path d="M 4.765625 0.191406 C 6.261719 0.191406 7.699219 -0.210938 8.441406 -0.785156 L 7.828125 -1.757812 C 7.257812 -1.335938 6.089844 -1.015625 4.914062 -1.015625 C 3.664062 -1.015625 2.5625 -1.441406 2.332031 -2.222656 L 8.316406 -2.222656 C 8.359375 -2.382812 8.367188 -2.59375 8.367188 -2.722656 C 8.367188 -4.449219 6.757812 -5.613281 4.386719 -5.613281 C 1.960938 -5.613281 0.265625 -4.417969 0.265625 -2.734375 C 0.265625 -0.984375 2.109375 0.191406 4.765625 0.191406 Z M 2.289062 -3.167969 C 2.382812 -3.917969 3.253906 -4.460938 4.355469 -4.460938 C 5.464844 -4.460938 6.34375 -3.949219 6.410156 -3.167969 Z M 2.289062 -3.167969 "/></g></g></g><g fill="#000000" fill-opacity="1"><g transform="translate(69.470667, 24.226243)"><g><path d="M 1.386719 0.117188 C 2.042969 0.117188 2.511719 -0.285156 2.511719 -0.867188 C 2.511719 -1.441406 2.042969 -1.84375 1.386719 -1.84375 C 0.742188 -1.84375 0.277344 -1.441406 0.277344 -0.867188 C 0.277344 -0.285156 0.742188 0.117188 1.386719 0.117188 Z M 1.386719 0.117188 "/></g></g></g></svg>